<svg xmlns="http://www.w3.org/2000/svg" width="1000" height="1000"><defs><linearGradient id="g" x1="0" y1="0" x2="1" y2="1"><stop stop-color="#251b46"/><stop offset="1" stop-color="#f04d1e"/></linearGradient></defs><rect width="1000" height="1000" fill="#080808"/><rect x="55" y="55" width="890" height="890" fill="url(#g)" opacity=".85"/><g opacity=".25" stroke="#fff"><path d="M55 100H945"/><path d="M55 170H945"/><path d="M55 240H945"/><path d="M55 310H945"/><path d="M55 380H945"/><path d="M55 450H945"/><path d="M55 520H945"/><path d="M55 590H945"/><path d="M55 660H945"/><path d="M55 730H945"/><path d="M55 800H945"/><path d="M55 870H945"/><path d="M55 940H945"/></g><circle cx="650" cy="420" r="210" fill="none" stroke="#f5dfd0" stroke-width="24"/><circle cx="650" cy="420" r="70" fill="#f5dfd0"/><path d="M150 580Q380 270 610 580" fill="none" stroke="#d8ff45" stroke-width="18"/><text x="95" y="130" fill="#fff" font-family="Arial" font-size="28" letter-spacing="8">DJ HOTWAX</text><text x="95" y="790" fill="#fff" font-family="Georgia" font-size="68">Nuits Feutrées</text><text x="95" y="842" fill="#fff" opacity=".8" font-family="Arial" font-size="22" letter-spacing="5">FRENCH JAZZ</text></svg>